<svg width="13" height="14" viewBox="0 0 13 14" fill="none" xmlns="http://www.w3.org/2000/svg">
  <path d="M5.43843 8.83742H3.5468V13.7635H0V0.364502H5.35962C7.27752 0.364502 8.67654 0.692909 9.55667 1.34972C10.4368 1.9934 10.8769 3.01147 10.8769 4.40392C10.8769 6.21673 10.2135 7.43184 8.88672 8.04924L12.6503 13.7635H8.55174L5.43843 8.83742ZM3.5468 6.37436H5.35962C6.05584 6.37436 6.55502 6.22987 6.85716 5.94087C7.17243 5.65187 7.33006 5.20523 7.33006 4.60096C7.33006 3.97042 7.179 3.51722 6.87686 3.24135C6.57472 2.96549 6.06898 2.82756 5.35962 2.82756H3.5468V6.37436Z" fill="#101828" />
</svg>